<svg xmlns="http://www.w3.org/2000/svg" xmlns:xlink="http://www.w3.org/1999/xlink" preserveAspectRatio="xMidYMid" width="19" height="19" viewBox="0 0 19 19">
  <defs>
    <style>
      .cls-1 {
        fill: #fff;
        fill-rule: evenodd;
      }
    </style>
  </defs>
  <path d="M16.889,18.999 L2.111,18.999 C0.950,18.999 -0.000,18.049 -0.000,16.888 L-0.000,2.110 C-0.000,0.949 0.950,-0.000 2.111,-0.000 L16.889,-0.000 C18.050,-0.000 19.000,0.949 19.000,2.110 L19.000,16.888 C19.000,18.049 18.050,18.999 16.889,18.999 ZM16.889,2.110 L2.111,2.110 L2.111,16.888 L16.889,16.888 L16.889,2.110 ZM9.500,11.611 C11.083,11.611 14.250,12.349 14.250,13.933 L14.250,14.777 L4.750,14.777 L4.750,13.933 C4.750,12.455 7.916,11.611 9.500,11.611 ZM9.500,9.711 C8.233,9.711 7.178,8.655 7.178,7.389 C7.178,6.122 8.233,5.066 9.500,5.066 C10.766,5.066 11.822,6.122 11.822,7.389 C11.822,8.655 10.766,9.711 9.500,9.711 Z" class="cls-1"/>
</svg>
