<svg xmlns="http://www.w3.org/2000/svg" viewBox="0 0 16 16"><path d="M14.7 1.5h-2.2v-1c0-.3-.2-.5-.5-.5s-.5.2-.5.5v1H9.4c0 .1-1.4 0-1.5 0H4.5v-1C4.5.2 4.3 0 4 0s-.5.2-.5.5v1H1.3C.6 1.5 0 2.1 0 2.8v11.8c0 .8.6 1.4 1.3 1.4h13.3c.7 0 1.3-.6 1.3-1.3V2.8c.1-.7-.5-1.3-1.2-1.3zm.3 13.2c0 .2-.1.3-.3.3H1.3c-.2 0-.3-.1-.3-.3V2.8c0-.2.1-.3.3-.3h2.2v1c0 .3.2.5.5.5s.5-.2.5-.5v-1h3.4c.1 0 1.5-.1 1.5 0h2.1v1c0 .3.2.5.5.5s.5-.2.5-.5v-1h2.2c.2 0 .3.1.3.3v11.9z"/><path d="M3.5 5h2v2.5h-2zM3.5 9.5h2v2.8h-2zM7 9.5h2v2.8H7zM7 5h2v2.5H7zM10.5 9.5h2v2.8h-2zM10.5 5h2v2.5h-2z"/></svg>