<svg xmlns="http://www.w3.org/2000/svg" xmlns:xlink="http://www.w3.org/1999/xlink" preserveAspectRatio="xMidYMid" width="17" height="15" viewBox="0 0 17 15">
  <defs>
    <style>
      .cls-1 {
        fill: #fff;
        fill-rule: evenodd;
      }
    </style>
  </defs>
  <path d="M15.050,13.820 C14.893,14.527 14.270,14.998 13.568,14.998 L3.428,14.998 C2.727,14.998 2.102,14.448 1.947,13.820 L-0.003,6.517 C-0.003,6.439 -0.003,6.361 -0.003,6.283 C-0.003,5.812 0.309,5.497 0.777,5.497 L4.520,5.497 L7.952,0.315 C8.108,0.080 8.342,0.001 8.576,0.001 C8.810,0.001 9.044,0.158 9.200,0.315 L12.632,5.497 L16.219,5.497 C16.687,5.497 16.999,5.812 16.999,6.283 C16.999,6.361 16.999,6.439 16.999,6.517 L15.050,13.820 ZM8.576,11.778 C9.434,11.778 10.136,11.072 10.136,10.208 C10.136,9.345 9.434,8.637 8.576,8.637 C7.718,8.637 7.016,9.345 7.016,10.208 C7.016,11.072 7.718,11.778 8.576,11.778 ZM8.576,2.043 L6.236,5.497 L10.916,5.497 L8.576,2.043 Z" class="cls-1"/>
</svg>
