<svg xmlns="http://www.w3.org/2000/svg" xmlns:xlink="http://www.w3.org/1999/xlink" preserveAspectRatio="xMidYMid" width="19" height="19" viewBox="0 0 19 19">
  <defs>
    <style>
      .cls-1 {
        fill: #fff;
        fill-rule: evenodd;
      }
    </style>
  </defs>
  <path d="M18.578,16.994 L12.666,19.000 L6.333,16.782 L0.739,19.000 C0.633,19.000 0.633,19.000 0.528,19.000 C0.211,19.000 -0.000,18.788 -0.000,18.472 L-0.000,2.533 C-0.000,2.216 0.211,2.111 0.422,2.005 L6.333,-0.001 L12.666,2.216 L18.261,-0.001 C18.366,-0.001 18.366,-0.001 18.472,-0.001 C18.789,-0.001 19.000,0.211 19.000,0.527 L19.000,16.466 C19.000,16.677 18.789,16.888 18.578,16.994 ZM12.666,4.327 L6.333,2.111 L6.333,14.672 L12.666,16.888 L12.666,4.327 Z" class="cls-1"/>
</svg>
