<svg xmlns="http://www.w3.org/2000/svg" viewBox="0 0 456.556 456.556"><path d="M335.025 312.746c-3.434 0-6.875-1.31-9.498-3.934-5.238-5.242-5.238-13.746 0-18.988l48.124-48.117H182.02c-7.412 0-13.427-6.01-13.427-13.428s6.015-13.43 13.428-13.43h190.834l-47.404-48.193c-5.182-5.273-5.133-13.746.12-18.953 5.237-5.203 13.714-5.196 18.952.042l71.043 71.04c2.518 2.518 3.93 5.934 3.93 9.494s-1.412 6.976-3.93 9.494l-71.043 71.04c-2.623 2.62-6.064 3.932-9.497 3.932z"/><path d="M311.44 456.556H50.49c-7.413 0-13.428-6.01-13.428-13.428v-429.7C37.06 6.01 43.075 0 50.488 0H311.44c7.414 0 13.43 6.01 13.43 13.428v78.638c0 7.417-6.016 13.428-13.43 13.428-7.412 0-13.427-6.01-13.427-13.428v-65.21H63.916V429.7h234.097v-65.21c0-7.417 6.015-13.428 13.428-13.428 7.414 0 13.43 6.01 13.43 13.428v78.638c0 7.417-6.015 13.428-13.43 13.428z"/></svg>