<svg xmlns="http://www.w3.org/2000/svg" viewBox="0 0 24 24"><path fill-rule="evenodd" clip-rule="evenodd" d="M12.9 24h-2c-.7 0-1.3-.6-1.3-1.3v-2.4c-.7-.2-1.4-.5-2.1-.9L6 20.9c-.3.2-.6.4-.9.4-.4 0-.7-.1-1-.4l-1.4-1.4c-.5-.5-.5-1.4 0-1.9L4.4 16c-.3-.5-.5-1.1-.7-1.7H1.3C.6 14.3 0 13.7 0 13v-2c0-.7.6-1.3 1.3-1.3h2.4c.2-.7.5-1.4.9-2.1L2.9 5.8c-.5-.5-.5-1.4 0-1.9l1.4-1.4c.3-.2.6-.4.9-.4.4 0 .7.1 1 .4L8 4.4c.5-.3 1.1-.5 1.7-.7V1.3C9.7.6 10.3 0 11 0h2c.7 0 1.3.6 1.3 1.3v2.4c.6.2 1.2.4 1.8.7L18 2.6c.3-.2.6-.4.9-.4.4 0 .7.1 1 .4L21.2 4c.3.3.4.6.4 1s-.1.7-.4.9l-1.8 1.8c.4.6.7 1.3.9 2h2.4c.7 0 1.3.6 1.3 1.3v2c0 .7-.6 1.3-1.3 1.3h-2.4c-.2.6-.4 1.2-.7 1.8l1.6 1.6c.3.3.4.6.4 1s-.1.7-.4.9L19.8 21c-.3.2-.6.4-.9.4-.4 0-.7-.1-1-.4l-1.5-1.5c-.6.4-1.3.7-2 .9v2.4c-.1.5-.7 1.2-1.5 1.2zm0-1.5v-3.2l.8-.4h.1c.8-.2 1.5-.5 2.1-.9h.1l.8-.4 2.2 2.3 1.3-1.2-2.3-2.3.4-.8c.3-.5.5-1.1.7-1.8v-.1l.4-.7h3.3v-1.7h-3.3l-.5-.8v-.1c-.2-.8-.5-1.5-.9-2v-.1l-.4-.8L20.1 5l-1.3-1.3-2.6 2.5-.8-.4c-.5-.3-1.1-.5-1.8-.7h-.1l-.7-.4V1.5h-1.7v3.2l-.7.4h-.1c-.7.2-1.3.4-1.9.7l-.8.4-2.5-2.5-1.2 1.2 2.5 2.5-.4.8v.1c-.4.5-.7 1.2-.9 2v.1l-.4.7H1.4v1.7h3.3l.3.7v.1c.2.7.4 1.2.7 1.8l.4.8-2.3 2.3 1.3 1.3 2.3-2.2.8.4h.1c.5.4 1.2.7 2.1.9h.1l.8.4v3.2h1.6z"/><path d="M12 16.5c-2.5 0-4.6-2.1-4.6-4.6S9.5 7.3 12 7.3s4.6 2.1 4.6 4.6-2.1 4.6-4.6 4.6zm2.9-4.6c0-1.6-1.3-3-2.9-3s-3 1.4-3 3 1.3 3 2.9 3 3-1.4 3-3z"/></svg>