<svg xmlns="http://www.w3.org/2000/svg" viewBox="0 0 15 17"><path fill="#030104" d="M8.2 9.2c0-.7.6-1.3 1.3-1.3.7 0 1.3.6 1.3 1.3 0 .7-.6 1.3-1.3 1.3s-1.3-.6-1.3-1.3zM4.4 7.9c-.7 0-1.3.6-1.3 1.3 0 .7.6 1.3 1.3 1.3s1.3-.6 1.3-1.3c-.1-.7-.6-1.3-1.3-1.3zm8.8-1.3h-.1c0-4.6-3-6.6-6.2-6.6C3.4 0 .2 2.3.8 7.7.3 8.2 0 8.9 0 9.8c0 1.2 1.1 2.3 2 2.6.3 1 .9 1.9 1.7 2.6.1.1.3.2.4.2.2 0 .4-.1.5-.2.2-.3.2-.7-.1-.9-.7-.6-1.2-1.4-1.3-2.3-.1-.3-.3-.5-.6-.5s-1.3-.7-1.3-1.4c0-.3.1-.6.2-.8.1.1.3.2.5.2.3 0 .6-.3.6-.7v-.7c0-.4.1-.9.2-1.3.8-.3 1.5.2 2.2-2.1C6.1 7.9 8.9 6 10.9 5.9c.2.6.4 1.3.4 2v.6c0 .4.3.7.6.7v1.6c-.2.2-.5.3-.6.3-.3 0-.6.2-.6.5-.1.6-.4 1.1-.7 1.6-.3.4-.2.8 0 1.1.3.2.7.2.9-.1.4-.5.7-1.1.9-1.7.3-.1.6-.3.9-.6h.4c-.3 1.8-1.3 2.7-1.5 2.8-.2.1-1.1.4-3 .6-.1-.8-.8-1.3-1.7-1.3-1 0-1.8.7-1.8 1.5S5.9 17 6.9 17c.6 0 1.2-.3 1.5-.7 2.6-.1 3.7-.7 3.8-.7.1-.1 1.7-1.3 2-4.1.5-.4.7-.9.7-1.6V8.6c.1-1.1-.7-2-1.7-2z"/></svg>