<svg xmlns="http://www.w3.org/2000/svg" xmlns:xlink="http://www.w3.org/1999/xlink" viewBox="0 0 89 37.3"><defs><path id="a" d="M0 0h89v37.3H0z"/></defs><clipPath id="b"><use xlink:href="#a" overflow="visible"/></clipPath><path clip-path="url(#b)" fill-rule="evenodd" clip-rule="evenodd" fill="#FFF" d="M0 13.1h2.5l2.8 8.1 2.2-5.5h.9l2.3 5.5 1.6-5.6 2.2.4-3.2 9.5h-1l-2.5-5.8-2.4 5.8h-1L0 13.1zm23.2 5.1l-6.3 4.1c.2.3.5.6.8.7.3.2.7.2 1.1.2.5 0 1-.1 1.5-.4.5-.2.9-.6 1.4-1l.8 2c-.5.5-1.1.9-1.7 1.2-.7.3-1.3.4-2 .4-1.3 0-2.5-.5-3.4-1.5-.9-1-1.4-2.2-1.4-3.7 0-1.4.5-2.6 1.4-3.5 1-1 2.1-1.4 3.5-1.4.9 0 1.7.2 2.4.7.8.6 1.4 1.3 1.9 2.2m-2.8-.3c-.2-.2-.5-.3-.7-.4-.3-.1-.5-.1-.8-.1-.7 0-1.4.2-1.9.8-.5.5-.8 1.1-.8 1.9v.3c0 .1 0 .2.1.4l4.1-2.9zm7.9-.2c-.7 0-1.4.3-1.9.8s-.8 1.2-.8 2 .3 1.5.8 2 1.1.8 1.9.8c.7 0 1.4-.3 1.9-.8s.8-1.2.8-2-.3-1.4-.8-2c-.6-.5-1.2-.8-1.9-.8m-2.6-6.9v5.8c.3-.4.7-.7 1.2-.9.5-.2.9-.3 1.5-.3 1.4 0 2.6.5 3.6 1.5s1.5 2.2 1.5 3.6-.5 2.6-1.4 3.6c-1 1-2.2 1.4-3.6 1.4-1.7 0-3-.5-3.8-1.5-.8-1-1.2-2.5-1.2-4.6v-8.6h2.2zm13.9 6.5l-1.4 1.3c-.2-.4-.4-.8-.7-1-.3-.2-.6-.3-1-.3-.2 0-.4.1-.6.2-.2.2-.2.3-.2.6 0 .4.5.8 1.4 1.1.2.1.3.1.4.2.7.3 1.3.6 1.6 1.1.3.4.5 1 .5 1.7 0 1-.3 1.7-1 2.4-.7.6-1.5 1-2.4 1-.6 0-1.1-.1-1.6-.4-.5-.2-.9-.6-1.2-1l1.4-1.7c.2.3.4.6.7.8.3.2.6.3.9.3.3 0 .6-.1.8-.3.2-.2.3-.4.3-.7s-.1-.5-.3-.7c-.2-.2-.6-.4-1.2-.6-.9-.3-1.6-.7-1.9-1.1-.4-.4-.6-1-.6-1.7 0-.8.3-1.6.9-2.1.6-.6 1.3-.9 2.2-.9.6 0 1.2.2 1.7.5.6.2 1 .7 1.3 1.3m3.3-1.8v9.7l-2.4.2v-9.7l2.4-.2zm-2.4-4.6h2.4v2.6h-2.4v-2.6zm6.3.7v4.1h1.9V18h-1.9v2.9c0 .9.1 1.5.4 1.8.3.3.8.5 1.5.5v2.4h-.2c-1.5 0-2.6-.3-3.2-.9-.6-.6-.9-1.6-.9-3.1V18h-.9v-2.3h.9v-2.8l2.4-1.3zm11.3 6.6l-6.3 4.1c.2.3.5.6.8.7.3.2.7.2 1.1.2.5 0 1-.1 1.5-.4.5-.2.9-.6 1.4-1l.8 2c-.5.5-1.1.9-1.7 1.2-.7.3-1.3.4-2 .4-1.3 0-2.5-.5-3.4-1.5-.9-1-1.4-2.2-1.4-3.7 0-1.4.5-2.6 1.4-3.5.9-1 2.1-1.4 3.5-1.4.9 0 1.7.2 2.4.7.7.6 1.4 1.3 1.9 2.2m-2.9-.3c-.2-.2-.5-.3-.7-.4-.3-.1-.5-.1-.8-.1-.7 0-1.4.2-1.9.8-.5.5-.8 1.1-.8 1.8v.3c0 .1 0 .2.1.4l4.1-2.8z"/><path clip-path="url(#b)" fill-rule="evenodd" clip-rule="evenodd" fill="#E86824" d="M63.1 17.7c-.7 0-1.4.3-1.9.8s-.8 1.2-.8 2 .2 1.5.8 2c.5.5 1.1.8 1.9.8.7 0 1.4-.3 1.9-.8s.8-1.2.8-2-.3-1.4-.8-2c-.5-.5-1.1-.8-1.9-.8m-2.6-6.9v5.8c.3-.4.7-.7 1.2-.9.5-.2.9-.3 1.5-.3 1.4 0 2.6.5 3.6 1.5s1.5 2.2 1.5 3.6-.5 2.6-1.4 3.6c-1 1-2.2 1.4-3.6 1.4-1.7 0-3-.5-3.9-1.5-.8-1-1.2-2.5-1.2-4.6v-8.6h2.3zm12.8 6.8c-.7 0-1.3.3-1.8.8s-.8 1.2-.8 2 .2 1.5.7 2c.5.5 1.1.8 1.9.8.7 0 1.4-.3 1.9-.8s.8-1.2.8-2-.3-1.4-.8-2c-.5-.5-1.1-.8-1.9-.8m0-2.2c1.4 0 2.6.5 3.6 1.5s1.5 2.2 1.5 3.6-.5 2.6-1.5 3.6-2.2 1.5-3.6 1.5-2.6-.5-3.6-1.5-1.5-2.2-1.5-3.6.5-2.6 1.5-3.6 2.2-1.5 3.6-1.5m11.5.1l2 1.1-3 4 5.1 6.6H86l-3.5-4.8-2.3 3.3-2.3-.9 3.3-4.2-3.1-3.9 2.2-1.1 2.1 3.3 2.4-3.4zM23.2 9.9h2.4V2.3H58v7.6h2.5V0H23.2v9.9z"/><path clip-path="url(#b)" fill-rule="evenodd" clip-rule="evenodd" fill="#FFF" d="M23.2 25.5h2.4V35H58v-9.5h2.5v11.8H23.2V25.5zM84.4 14v-2.6h-1V11h2.4v.4h-1V14h-.4zm4.2 0h-.4v-2.6l-.8 1.7h-.2l-.8-1.7V14H86v-3h.5l.7 1.7.7-1.7h.5v3z"/></svg>